<?xml version="1.0" encoding="UTF-8" standalone="no"?><svg xmlns="http://www.w3.org/2000/svg" xmlns:xlink="http://www.w3.org/1999/xlink" contentScriptType="application/ecmascript" contentStyleType="text/css" height="634px" preserveAspectRatio="none" style="width:550px;height:634px;" version="1.1" viewBox="0 0 550 634" width="550px" zoomAndPan="magnify"><defs/><g><!--MD5=[6445bb8604022839c96f378ba5340bd0]
cluster Ditt användargränssnitt--><path d="M42.5416,21.4489 C45.788,14.0691 52.0436,14.8709 56.2138,20.4763 C59.597,14.8747 64.5088,13.2316 69.0296,19.2182 C72.0545,11.3667 76.7385,11.788 82.108,16.8423 C85.6993,9.9467 90.0484,10.0418 94.9426,15.4873 C99.09,8.5655 104.5893,9.8101 108.7537,15.4686 C111.9228,9.1439 117.1425,8.8807 121.2903,14.4359 C125.2253,6.7574 131.9855,6 136.8467,13.4858 C141.4294,7.0047 146.3238,8.3056 149.582,14.787 C154.3186,10.106 158.324,10.0336 161.5736,16.4009 C164.637,10.5935 171.0453,9.2026 175.0302,15.3649 C180.1043,10.3338 186.3657,10.2151 188.8278,18.1454 C192.9122,12.1622 197.6709,11.8887 201.2141,18.6705 C205.8099,12.1558 211.7729,11.6051 215.7919,19.2637 C221.4475,13.7288 226.3108,14.5382 229.2294,22.0768 C234.9095,24.9271 236.6126,30.6382 230.8448,34.9275 C238.0109,36.3067 239.5501,41.9312 234.4722,46.9918 C241.7434,49.7735 241.5832,55.2456 236.1365,59.6937 C241.5246,65.3691 240.2439,69.1756 233.0768,71.6336 C237.7932,76.9504 237.4474,81.1159 230.6896,84.2639 C235.661,89.6578 233.956,94.681 227.4807,97.2455 C224.2347,103.4456 219.4447,102.9389 215.715,97.7449 C212.5985,104.226 206.3437,106.2505 201.7369,99.2955 C197.9675,105.9967 191.8745,105.8465 188.5017,98.9107 C184.7741,105.9931 179.5123,105.6894 175.1663,99.5336 C171.7771,106.4731 166.7046,106.4477 162.3818,100.4567 C159.1325,106.8782 154.078,108.335 149.3214,101.9998 C145.1182,108.1915 139.3469,108.7483 134.7954,102.4034 C131.0945,107.9895 125.8475,109.5449 121.8235,102.7416 C116.9335,108.683 112.6285,109.4139 108.1185,102.3414 C103.422,108.2036 97.8107,106.6607 95.526,99.9298 C91.6459,105.7665 87.5291,106.2286 83.632,99.9466 C78.8213,105.212 73.4371,106.3645 69.7998,98.6921 C66.0752,105.8342 59.2701,104.3903 56.0872,98.1376 C51.2506,103.7885 46.3329,102.3692 42.9372,96.4938 C36.6693,94.1544 35.6083,89.6791 39.448,84.419 C34.6076,80.8175 33.5587,77.445 38.9763,73.4041 C31.4566,71.3331 28.0683,64.743 34.4925,58.4822 C30.5766,54.0515 31.5063,50.5088 36.7975,48.1278 C30.1502,41.5613 33.9458,35.4444 41.5225,33.4598 C35.4236,29.8008 35.8707,24.0245 42.5416,21.4489 " fill="#90EE90" style="stroke:#000000;stroke-width:1.5;"/><text fill="#000000" font-family="sans-serif" font-size="14" font-weight="bold" lengthAdjust="spacing" textLength="185" x="42" y="38.3605">Ditt användargränssnitt</text><!--MD5=[d5fc2b496de4b887530f0d303425c7a9]
cluster Test suite--><path d="M360.179,20.4972 C364.2579,14.5854 370.4004,14.1495 374.0333,20.982 C376.9643,14.8679 382.3555,15.1257 386.3167,19.8102 C388.8979,14.746 393.4478,13.7323 397.0098,18.7722 C399.8494,12.2232 403.298,10.7009 408.8269,16.1159 C412.21,10.3846 418.2749,8.6357 422.1557,15.5931 C425.5114,9.3403 429.3829,8.0186 434.2925,14.0588 C436.3916,8.959 441.5158,8.1434 445.0634,12.3894 C449.4996,6.8445 454.3799,7.7143 457.0953,14.1217 C461.3393,7.7425 466.8831,8.6445 470.5186,14.7747 C474.2115,10.8375 479.3403,11.2365 480.921,17.0322 C484.446,10.7823 490.9295,9.8034 494.3262,17.1586 C498.5941,12.3926 503.9314,13.3922 506.4885,19.1381 C510.8268,12.8984 516.4857,14.244 518.8432,21.0185 C522.6666,14.7239 527.8423,14.9047 531.1678,21.4947 C538.954,24.9656 537.7595,30.2877 532.5888,35.1108 C539.7833,37.1766 541.4521,41.9054 536.1117,47.5277 C542.0312,50.2017 542.5073,55.0176 538.1651,59.4578 C543.5011,63.6138 542.1746,68.7373 536.3273,71.133 C541.1577,76.5924 540.4645,82.9377 532.6524,85.0614 C537.8992,89.835 538.0562,93.893 531.1808,97.1966 C527.7263,103.9463 522.8246,105.4687 517.7031,98.8812 C513.78,103.5494 508.5623,104.4838 505.7244,97.742 C502.9354,103.2018 497.4038,102.7198 494.4996,97.8674 C490.8607,104.6698 486.7588,103.9239 482.4602,98.518 C479.8169,104.8937 474.8334,104.7853 470.9266,99.8008 C466.4794,104.9807 460.8089,104.7517 458.122,97.9238 C454.364,103.6444 449.6073,104.2952 444.8335,99.1682 C441.5708,104.8606 437.2518,104.47 434.2748,98.9003 C430.6231,104.3485 425.2637,102.7851 422.6614,97.739 C418.8422,104.1343 414.3122,105.1698 409.8612,98.351 C405.6903,104.2019 401.1101,103.8578 397.7978,97.5025 C395.501,103.7894 389.7458,103.0975 386.3891,98.6264 C382.916,104.4434 377.7211,105.0076 374.3636,98.5135 C369.9994,105.0769 363.7613,103.33 361.3304,96.6158 C356.2277,93.6262 355.1178,89.3803 360.2919,85.4362 C354.5228,82.0137 354.7966,75.8738 360.3565,72.5079 C354.5856,69.3793 352.4576,64.7463 358.6832,60.0115 C352.8952,56.0696 353.4821,49.777 359.5425,46.594 C353.3415,43.1113 354.3598,36.8919 360.1246,33.9606 C353.8407,30.2001 354.6872,24.21 360.179,20.4972 " fill="#DDDDDD" style="stroke:#000000;stroke-width:1.5;"/><text fill="#000000" font-family="sans-serif" font-size="14" font-weight="bold" lengthAdjust="spacing" textLength="79" x="405" y="38.3605">Test suite</text><path d="M117,58.8653 L117,76.9982 A3.5,3.5 0 0 0 120.5,80.4982 L193.5,80.4982 A3.5,3.5 0 0 0 197,76.9982 L197,65.3653 L187,55.3653 L120.5,55.3653 A3.5,3.5 0 0 0 117,58.8653 " fill="#7FFFD4" style="stroke:#7FFFD4;stroke-width:1.0;"/><path d="M187,55.3653 L187,63.6153 A1.75,1.75 0 0 0 188.75,65.3653 L197,65.3653 L187,55.3653 " fill="#7FFFD4" style="stroke:#7FFFD4;stroke-width:1.0;"/><text fill="#454645" font-family="sans-serif" font-size="13" lengthAdjust="spacing" textLength="59" x="123" y="72.4322">main.cpp</text><path d="M395.5,58.8653 L395.5,76.9982 A3.5,3.5 0 0 0 399,80.4982 L509,80.4982 A3.5,3.5 0 0 0 512.5,76.9982 L512.5,65.3653 L502.5,55.3653 L399,55.3653 A3.5,3.5 0 0 0 395.5,58.8653 " fill="#7FFFD4" style="stroke:#7FFFD4;stroke-width:1.0;"/><path d="M502.5,55.3653 L502.5,63.6153 A1.75,1.75 0 0 0 504.25,65.3653 L512.5,65.3653 L502.5,55.3653 " fill="#7FFFD4" style="stroke:#7FFFD4;stroke-width:1.0;"/><text fill="#454645" font-family="sans-serif" font-size="13" lengthAdjust="spacing" textLength="96" x="401.5" y="72.4322">tests-main.cpp</text><!--MD5=[36c80c3aa040affdc0dd3c8f4f214fbc]
class MediaManager--><rect codeLine="6" fill="#90EE90" height="48" id="MediaManager" rx="3.5" ry="3.5" style="stroke:#A80036;stroke-width:1.5;" width="124" x="7" y="140.3653"/><ellipse cx="22" cy="156.3653" fill="#ADD1B2" rx="11" ry="11" style="stroke:#A80036;stroke-width:1.0;"/><path d="M24.9688,162.006 Q24.3906,162.3028 23.75,162.4435 Q23.1094,162.5997 22.4063,162.5997 Q19.9063,162.5997 18.5781,160.9591 Q17.2656,159.3028 17.2656,156.1778 Q17.2656,153.0528 18.5781,151.3966 Q19.9063,149.7403 22.4063,149.7403 Q23.1094,149.7403 23.75,149.8966 Q24.4063,150.0528 24.9688,150.3497 L24.9688,153.0685 Q24.3438,152.4903 23.75,152.2247 Q23.1563,151.9435 22.5313,151.9435 Q21.1875,151.9435 20.5,153.0216 Q19.8125,154.0841 19.8125,156.1778 Q19.8125,158.2716 20.5,159.3497 Q21.1875,160.4122 22.5313,160.4122 Q23.1563,160.4122 23.75,160.1466 Q24.3438,159.8653 24.9688,159.2872 L24.9688,162.006 Z " fill="#000000"/><text fill="#000000" font-family="sans-serif" font-size="12" lengthAdjust="spacing" textLength="92" x="36" y="160.5196">MediaManager</text><line style="stroke:#A80036;stroke-width:1.5;" x1="8" x2="130" y1="172.3653" y2="172.3653"/><line style="stroke:#A80036;stroke-width:1.5;" x1="8" x2="130" y1="180.3653" y2="180.3653"/><!--MD5=[9d93cc8568a88ed605ddd50c0dd874e2]
class Media--><rect codeLine="7" fill="#90EE90" height="48" id="Media" rx="3.5" ry="3.5" style="stroke:#A80036;stroke-width:1.5;" width="69" x="237.5" y="248.3653"/><ellipse cx="252.5" cy="264.3653" fill="#A9DCDF" rx="11" ry="11" style="stroke:#A80036;stroke-width:1.0;"/><path d="M252.6094,259.7091 L251.4531,264.7872 L253.7813,264.7872 L252.6094,259.7091 Z M251.125,257.4747 L254.1094,257.4747 L257.4688,269.8653 L255.0156,269.8653 L254.25,266.8028 L250.9688,266.8028 L250.2188,269.8653 L247.7813,269.8653 L251.125,257.4747 Z " fill="#000000"/><text fill="#000000" font-family="sans-serif" font-size="12" font-style="italic" lengthAdjust="spacing" textLength="37" x="266.5" y="268.5196">Media</text><line style="stroke:#A80036;stroke-width:1.5;" x1="238.5" x2="305.5" y1="280.3653" y2="280.3653"/><line style="stroke:#A80036;stroke-width:1.5;" x1="238.5" x2="305.5" y1="288.3653" y2="288.3653"/><!--MD5=[84e3a5e42879fb3231104d3c8e592439]
class Book--><rect codeLine="8" fill="#90EE90" height="48" id="Book" rx="3.5" ry="3.5" style="stroke:#A80036;stroke-width:1.5;" width="63" x="154.5" y="356.3653"/><ellipse cx="169.5" cy="372.3653" fill="#ADD1B2" rx="11" ry="11" style="stroke:#A80036;stroke-width:1.0;"/><path d="M172.4688,378.006 Q171.8906,378.3028 171.25,378.4435 Q170.6094,378.5997 169.9063,378.5997 Q167.4063,378.5997 166.0781,376.9591 Q164.7656,375.3028 164.7656,372.1778 Q164.7656,369.0528 166.0781,367.3966 Q167.4063,365.7403 169.9063,365.7403 Q170.6094,365.7403 171.25,365.8966 Q171.9063,366.0528 172.4688,366.3497 L172.4688,369.0685 Q171.8438,368.4903 171.25,368.2247 Q170.6563,367.9435 170.0313,367.9435 Q168.6875,367.9435 168,369.0216 Q167.3125,370.0841 167.3125,372.1778 Q167.3125,374.2716 168,375.3497 Q168.6875,376.4122 170.0313,376.4122 Q170.6563,376.4122 171.25,376.1466 Q171.8438,375.8653 172.4688,375.2872 L172.4688,378.006 Z " fill="#000000"/><text fill="#000000" font-family="sans-serif" font-size="12" lengthAdjust="spacing" textLength="31" x="183.5" y="376.5196">Book</text><line style="stroke:#A80036;stroke-width:1.5;" x1="155.5" x2="216.5" y1="388.3653" y2="388.3653"/><line style="stroke:#A80036;stroke-width:1.5;" x1="155.5" x2="216.5" y1="396.3653" y2="396.3653"/><!--MD5=[6360fb5fd33d95b06f66adef78978449]
class Vinyl--><rect codeLine="9" fill="#90EE90" height="48" id="Vinyl" rx="3.5" ry="3.5" style="stroke:#A80036;stroke-width:1.5;" width="60" x="388" y="356.3653"/><ellipse cx="403" cy="372.3653" fill="#ADD1B2" rx="11" ry="11" style="stroke:#A80036;stroke-width:1.0;"/><path d="M405.9688,378.006 Q405.3906,378.3028 404.75,378.4435 Q404.1094,378.5997 403.4063,378.5997 Q400.9063,378.5997 399.5781,376.9591 Q398.2656,375.3028 398.2656,372.1778 Q398.2656,369.0528 399.5781,367.3966 Q400.9063,365.7403 403.4063,365.7403 Q404.1094,365.7403 404.75,365.8966 Q405.4063,366.0528 405.9688,366.3497 L405.9688,369.0685 Q405.3438,368.4903 404.75,368.2247 Q404.1563,367.9435 403.5313,367.9435 Q402.1875,367.9435 401.5,369.0216 Q400.8125,370.0841 400.8125,372.1778 Q400.8125,374.2716 401.5,375.3497 Q402.1875,376.4122 403.5313,376.4122 Q404.1563,376.4122 404.75,376.1466 Q405.3438,375.8653 405.9688,375.2872 L405.9688,378.006 Z " fill="#000000"/><text fill="#000000" font-family="sans-serif" font-size="12" lengthAdjust="spacing" textLength="28" x="417" y="376.5196">Vinyl</text><line style="stroke:#A80036;stroke-width:1.5;" x1="389" x2="447" y1="388.3653" y2="388.3653"/><line style="stroke:#A80036;stroke-width:1.5;" x1="389" x2="447" y1="396.3653" y2="396.3653"/><!--MD5=[cb6aac1bffa9b47d29915a777ecea041]
class Ps2Game--><rect codeLine="10" fill="#90EE90" height="48" id="Ps2Game" rx="3.5" ry="3.5" style="stroke:#A80036;stroke-width:1.5;" width="91" x="258.5" y="356.3653"/><ellipse cx="273.5" cy="372.3653" fill="#ADD1B2" rx="11" ry="11" style="stroke:#A80036;stroke-width:1.0;"/><path d="M276.4688,378.006 Q275.8906,378.3028 275.25,378.4435 Q274.6094,378.5997 273.9063,378.5997 Q271.4063,378.5997 270.0781,376.9591 Q268.7656,375.3028 268.7656,372.1778 Q268.7656,369.0528 270.0781,367.3966 Q271.4063,365.7403 273.9063,365.7403 Q274.6094,365.7403 275.25,365.8966 Q275.9063,366.0528 276.4688,366.3497 L276.4688,369.0685 Q275.8438,368.4903 275.25,368.2247 Q274.6563,367.9435 274.0313,367.9435 Q272.6875,367.9435 272,369.0216 Q271.3125,370.0841 271.3125,372.1778 Q271.3125,374.2716 272,375.3497 Q272.6875,376.4122 274.0313,376.4122 Q274.6563,376.4122 275.25,376.1466 Q275.8438,375.8653 276.4688,375.2872 L276.4688,378.006 Z " fill="#000000"/><text fill="#000000" font-family="sans-serif" font-size="12" lengthAdjust="spacing" textLength="59" x="287.5" y="376.5196">Ps2Game</text><line style="stroke:#A80036;stroke-width:1.5;" x1="259.5" x2="348.5" y1="388.3653" y2="388.3653"/><line style="stroke:#A80036;stroke-width:1.5;" x1="259.5" x2="348.5" y1="396.3653" y2="396.3653"/><!--MD5=[3b034ebaa87c9ec5e8fb5410143f628f]
class Track--><rect codeLine="11" fill="#90EE90" height="48" id="Track" rx="3.5" ry="3.5" style="stroke:#A80036;stroke-width:1.5;" width="66" x="469" y="467.8653"/><ellipse cx="484" cy="483.8653" fill="#ADD1B2" rx="11" ry="11" style="stroke:#A80036;stroke-width:1.0;"/><path d="M486.9688,489.506 Q486.3906,489.8028 485.75,489.9435 Q485.1094,490.0997 484.4063,490.0997 Q481.9063,490.0997 480.5781,488.4591 Q479.2656,486.8028 479.2656,483.6778 Q479.2656,480.5528 480.5781,478.8966 Q481.9063,477.2403 484.4063,477.2403 Q485.1094,477.2403 485.75,477.3966 Q486.4063,477.5528 486.9688,477.8497 L486.9688,480.5685 Q486.3438,479.9903 485.75,479.7247 Q485.1563,479.4435 484.5313,479.4435 Q483.1875,479.4435 482.5,480.5216 Q481.8125,481.5841 481.8125,483.6778 Q481.8125,485.7716 482.5,486.8497 Q483.1875,487.9122 484.5313,487.9122 Q485.1563,487.9122 485.75,487.6466 Q486.3438,487.3653 486.9688,486.7872 L486.9688,489.506 Z " fill="#000000"/><text fill="#000000" font-family="sans-serif" font-size="12" lengthAdjust="spacing" textLength="34" x="498" y="488.0196">Track</text><line style="stroke:#A80036;stroke-width:1.5;" x1="470" x2="534" y1="499.8653" y2="499.8653"/><line style="stroke:#A80036;stroke-width:1.5;" x1="470" x2="534" y1="507.8653" y2="507.8653"/><!--MD5=[f1fccca5805530c984159887db05a838]
class VinylTypes--><rect codeLine="12" fill="#90EE90" height="48" id="VinylTypes" rx="3.5" ry="3.5" style="stroke:#A80036;stroke-width:1.5;" width="96" x="338" y="467.8653"/><ellipse cx="353" cy="483.8653" fill="#EB937F" rx="11" ry="11" style="stroke:#A80036;stroke-width:1.0;"/><path d="M357.1094,489.8653 L349.3906,489.8653 L349.3906,477.4747 L357.1094,477.4747 L357.1094,479.631 L351.8438,479.631 L351.8438,482.3028 L356.6094,482.3028 L356.6094,484.4591 L351.8438,484.4591 L351.8438,487.7091 L357.1094,487.7091 L357.1094,489.8653 Z " fill="#000000"/><text fill="#000000" font-family="sans-serif" font-size="12" lengthAdjust="spacing" textLength="64" x="367" y="488.0196">VinylTypes</text><line style="stroke:#A80036;stroke-width:1.5;" x1="339" x2="433" y1="499.8653" y2="499.8653"/><line style="stroke:#A80036;stroke-width:1.5;" x1="339" x2="433" y1="507.8653" y2="507.8653"/><!--MD5=[2e42295458bb0bec21c9622a623eb29e]
class Time--><rect codeLine="14" fill="#FEFECE" height="48" id="Time" rx="3.5" ry="3.5" style="stroke:#A80036;stroke-width:1.5;" width="61" x="471.5" y="579.3653"/><ellipse cx="486.5" cy="595.3653" fill="#ADD1B2" rx="11" ry="11" style="stroke:#A80036;stroke-width:1.0;"/><path d="M489.4688,601.006 Q488.8906,601.3028 488.25,601.4435 Q487.6094,601.5997 486.9063,601.5997 Q484.4063,601.5997 483.0781,599.9591 Q481.7656,598.3028 481.7656,595.1778 Q481.7656,592.0528 483.0781,590.3966 Q484.4063,588.7403 486.9063,588.7403 Q487.6094,588.7403 488.25,588.8966 Q488.9063,589.0528 489.4688,589.3497 L489.4688,592.0685 Q488.8438,591.4903 488.25,591.2247 Q487.6563,590.9435 487.0313,590.9435 Q485.6875,590.9435 485,592.0216 Q484.3125,593.0841 484.3125,595.1778 Q484.3125,597.2716 485,598.3497 Q485.6875,599.4122 487.0313,599.4122 Q487.6563,599.4122 488.25,599.1466 Q488.8438,598.8653 489.4688,598.2872 L489.4688,601.006 Z " fill="#000000"/><text fill="#000000" font-family="sans-serif" font-size="12" lengthAdjust="spacing" textLength="29" x="500.5" y="599.5196">Time</text><line style="stroke:#A80036;stroke-width:1.5;" x1="472.5" x2="531.5" y1="611.3653" y2="611.3653"/><line style="stroke:#A80036;stroke-width:1.5;" x1="472.5" x2="531.5" y1="619.3653" y2="619.3653"/><path d="M137,467.8653 L137,516.2638 A3.5,3.5 0 0 0 140.5,519.7638 L299.5,519.7638 A3.5,3.5 0 0 0 303,516.2638 L303,495.8653 L337.88,491.8653 L303,487.8653 L303,474.3653 L293,464.3653 L140.5,464.3653 A3.5,3.5 0 0 0 137,467.8653 " fill="#90EE90" style="stroke:#7FFFD4;stroke-width:1.0;"/><path d="M293,464.3653 L293,472.6153 A1.75,1.75 0 0 0 294.75,474.3653 L303,474.3653 L293,464.3653 " fill="#90EE90" style="stroke:#7FFFD4;stroke-width:1.0;"/><text fill="#454645" font-family="sans-serif" font-size="13" lengthAdjust="spacing" textLength="145" x="143" y="481.4322">De ljusgröna klasserna</text><text fill="#454645" font-family="sans-serif" font-size="13" lengthAdjust="spacing" textLength="132" x="143" y="496.565">i diagrammet ska du</text><text fill="#454645" font-family="sans-serif" font-size="13" lengthAdjust="spacing" textLength="122" x="143" y="511.6979">implementera själv</text><path d="M268,586.8653 L268,620.131 A3.5,3.5 0 0 0 271.5,623.631 L432.5,623.631 A3.5,3.5 0 0 0 436,620.131 L436,607.3653 L471.36,603.3653 L436,599.3653 L436,593.3653 L426,583.3653 L271.5,583.3653 A3.5,3.5 0 0 0 268,586.8653 " fill="#FFFFE0" style="stroke:#7FFFD4;stroke-width:1.0;"/><path d="M426,583.3653 L426,591.6153 A1.75,1.75 0 0 0 427.75,593.3653 L436,593.3653 L426,583.3653 " fill="#FFFFE0" style="stroke:#7FFFD4;stroke-width:1.0;"/><text fill="#454645" font-family="sans-serif" font-size="13" lengthAdjust="spacing" textLength="142" x="274" y="600.4322">De ljusgula klasserna i</text><text fill="#454645" font-family="sans-serif" font-size="13" lengthAdjust="spacing" textLength="147" x="274" y="615.565">diagrammet följer med</text><!--MD5=[59201d8f0f5e142fa7ac1cba22fe9015]
reverse link Media to Book--><path codeLine="16" d="M240.6,312.0653 C228.64,326.8153 215.38,343.1553 204.92,356.0453 " fill="none" id="Media-backto-Book" style="stroke:#454645;stroke-width:1.0;"/><polygon fill="none" points="235.3,307.4853,253.34,296.3653,246.17,316.3053,235.3,307.4853" style="stroke:#454645;stroke-width:1.0;"/><!--MD5=[d563e2fa27f75649a78bff7919977c1e]
reverse link Media to Ps2Game--><path codeLine="17" d="M284.84,315.9053 C288.98,329.5953 293.4,344.2653 296.96,356.0453 " fill="none" id="Media-backto-Ps2Game" style="stroke:#454645;stroke-width:1.0;"/><polygon fill="none" points="278.02,317.5353,278.94,296.3653,291.42,313.4853,278.02,317.5353" style="stroke:#454645;stroke-width:1.0;"/><!--MD5=[07041f8e8a55b60f97778e7fdfdbd2ee]
reverse link Media to Vinyl--><path codeLine="18" d="M319.94,308.1653 C342.32,324.4253 368.29,343.2753 387.88,357.4953 " fill="none" id="Media-backto-Vinyl" style="stroke:#454645;stroke-width:1.0;"/><polygon fill="none" points="315.75,313.7853,303.68,296.3653,323.98,302.4553,315.75,313.7853" style="stroke:#454645;stroke-width:1.0;"/><!--MD5=[c6aa4f87230754cad2665e35c6950732]
reverse link Vinyl to VinylTypes--><path codeLine="19" d="M407.53,417.1853 C402.68,433.7853 397.06,453.0253 392.78,467.6753 " fill="none" id="Vinyl-backto-VinylTypes" style="stroke:#454645;stroke-width:1.0;"/><polygon fill="#454645" points="411.21,404.5853,405.6833,409.2173,407.8333,416.1005,413.36,411.4685,411.21,404.5853" style="stroke:#454645;stroke-width:1.0;"/><!--MD5=[2aadf0e3c637e895babcdf344957a8c1]
reverse link Vinyl to Track--><path codeLine="20" d="M443.98,415.2353 C457.04,432.2553 472.52,452.4453 484.21,467.6753 " fill="none" id="Vinyl-backto-Track" style="stroke:#454645;stroke-width:1.0;"/><polygon fill="#454645" points="435.81,404.5853,436.2891,411.7805,443.1151,414.1056,442.636,406.9105,435.81,404.5853" style="stroke:#454645;stroke-width:1.0;"/><!--MD5=[25b4ec832db813b26c295192507a78b6]
reverse link Track to Time--><path codeLine="21" d="M502,529.1853 C502,545.6653 502,564.6653 502,579.1753 " fill="none" id="Track-backto-Time" style="stroke:#454645;stroke-width:1.0;"/><polygon fill="#454645" points="502,516.0853,498,522.0853,502,528.0853,506,522.0853,502,516.0853" style="stroke:#454645;stroke-width:1.0;"/><!--MD5=[240e626a03d73cadef15dbd956406c09]
reverse link MediaManager to Media--><path codeLine="23" d="M124.86,194.5353 C160.89,213.3453 206.61,237.2253 237.45,253.3253 " fill="none" id="MediaManager-backto-Media" style="stroke:#454645;stroke-width:1.0;"/><polygon fill="#454645" points="113.05,188.3653,116.5195,194.6869,123.6893,193.9157,120.2197,187.5941,113.05,188.3653" style="stroke:#454645;stroke-width:1.0;"/><!--MD5=[4a5b36115cc10a4cfe1644f0f51a1e2c]
reverse link Ditt användargränssnitt to MediaManager--><path codeLine="29" d="M69,104.6861 C69,105.1615 69,105.6385 69,106.1169 C69,109.9443 69,113.8634 69,117.7674 C69,125.5753 69,133.3228 69,140.1553 " fill="none" id="Ditt användargränssnitt-backto-MediaManager" style="stroke:#454645;stroke-width:1.0;"/><polygon fill="#454645" points="69,104.6861,65,110.6861,69,116.6861,73,110.6861,69,104.6861" style="stroke:#454645;stroke-width:1.0;"/><!--MD5=[67419bdaa5ef72d65631768bc98227c1]
reverse link Test suite to MediaManager--><path codeLine="34" d="M351.9828,71.8218 C351.8783,71.8602 351.7728,71.8989 351.6665,71.938 C351.4537,72.0162 351.2372,72.0957 351.0171,72.1765 C349.2559,72.8232 347.2607,73.5545 345.0539,74.3613 C336.2266,77.5885 324.0131,82.0241 309.8513,87.0878 C281.5275,97.2153 245.41,109.8553 213,120.3653 C186.32,129.0153 156.66,137.9853 131.22,145.4753 " fill="none" id="Test suite-backto-MediaManager" style="stroke:#454645;stroke-width:1.0;stroke-dasharray:7.0,7.0;"/><polygon fill="#454645" points="351.9828,71.8218,342.1555,71.1716,347.2897,73.5464,344.9149,78.6807,351.9828,71.8218" style="stroke:#454645;stroke-width:1.0;"/><!--MD5=[d127990e36b6a361ace31914f80b804b]
reverse link Test suite to Book--><path codeLine="35" d="M351.846,76.7331 C351.6217,76.9539 351.3933,77.1792 351.1609,77.4087 C350.6959,77.8678 350.2149,78.344 349.7182,78.8372 C347.7313,80.8098 345.4944,83.0526 343.0413,85.5455 C333.2288,95.5169 319.9575,109.4885 305.4,126.1666 C276.285,159.5228 242.025,203.7053 220,248.3653 C202.54,283.7653 193.35,329.1253 189.1,356.1153 " fill="none" id="Test suite-backto-Book" style="stroke:#454645;stroke-width:1.0;stroke-dasharray:7.0,7.0;"/><polygon fill="#454645" points="351.846,76.7331,342.6268,80.1979,348.2835,80.2413,348.24,85.898,351.846,76.7331" style="stroke:#454645;stroke-width:1.0;"/><!--MD5=[a6236ea021bb871644217db5fa3e349e]
reverse link Test suite to Vinyl--><path codeLine="36" d="M366.6402,104.4238 C366.7023,104.7564 366.7648,105.091 366.8277,105.4274 C370.8491,126.9563 376.2806,156.0335 382.1063,187.2191 C393.7575,249.5903 406.985,320.3953 413.66,356.1153 " fill="none" id="Test suite-backto-Vinyl" style="stroke:#454645;stroke-width:1.0;stroke-dasharray:7.0,7.0;"/><polygon fill="#454645" points="366.6402,104.4238,364.3607,114.0052,367.5583,109.3387,372.2247,112.5363,366.6402,104.4238" style="stroke:#454645;stroke-width:1.0;"/><!--MD5=[44b6cd0383ffc7a6e950e1ab5fb20dfe]
reverse link Test suite to Track--><path codeLine="37" d="M370.3262,104.4491 C372.7213,110.0278 375.5925,115.5378 379,120.3653 C387.01,131.7053 395.39,128.7553 403,140.3653 C474.03,248.7953 494.78,408.3253 500.24,467.5853 " fill="none" id="Test suite-backto-Track" style="stroke:#454645;stroke-width:1.0;stroke-dasharray:7.0,7.0;"/><polygon fill="#454645" points="370.3262,104.4491,370.2011,114.2972,372.2987,109.0436,377.5523,111.1412,370.3262,104.4491" style="stroke:#454645;stroke-width:1.0;"/><!--MD5=[29bf4f606007fcc962a8dd691f92ecdf]
reverse link Test suite to Ps2Game--><path codeLine="38" d="M355.1796,105.0514 C355.1083,105.5688 355.0362,106.0907 354.9635,106.6171 C354.818,107.6698 354.6697,108.7403 354.5185,109.828 C354.2163,112.0033 353.903,114.2473 353.5789,116.5557 C352.2825,125.789 350.8138,136.0507 349.195,147.0541 C342.72,191.0678 333.845,246.9503 324,296.3653 C319.94,316.7153 314.34,339.6353 310.1,356.2153 " fill="none" id="Test suite-backto-Ps2Game" style="stroke:#454645;stroke-width:1.0;stroke-dasharray:7.0,7.0;"/><polygon fill="#454645" points="355.1796,105.0514,349.9879,113.4208,354.4968,110.0045,357.913,114.5133,355.1796,105.0514" style="stroke:#454645;stroke-width:1.0;"/><!--MD5=[a972cbff567e3fd7cc09f2ee1b4d3e3c]
@startuml
'!includeurl https://raw.githubusercontent.com/matthewjosephtaylor/plantuml-style/master/style.pu'
!include https://raw.githubusercontent.com/future-architect/puml-themes/master/themes/puml-theme-vibrant.puml

skinparam classAttributeIconSize 0

class MediaManager #LightGreen
abstract class Media #LightGreen
class Book #LightGreen
class Vinyl #LightGreen
class Ps2Game #LightGreen
class Track #LightGreen
enum VinylTypes #LightGreen

class Time

Media <|- - Book
Media <|- - Ps2Game
Media <|- - Vinyl
Vinyl *- - VinylTypes
Vinyl *- - Track
Track *- - Time

MediaManager *- - Media

package "Ditt användargränssnitt" <<Cloud>> #LightGreen {
note "main.cpp" as N1
}

"Ditt användargränssnitt" *- - MediaManager

package "Test suite" <<Cloud>> #DDDDDD {
    note "tests-main.cpp" as N2
}
    "Test suite" <.. MediaManager
    "Test suite" <.. Book
    "Test suite" <.. Vinyl
    "Test suite" <.. Track
    "Test suite" <.. Ps2Game

note left of VinylTypes #LightGreen
    De ljusgröna klasserna
    i diagrammet ska du
    implementera själv
end note

note left of Time #LightYellow
    De ljusgula klasserna i
    diagrammet följer med
end note

@enduml

@startuml
skinparam BackgroundColor FFFFFF
skinparam shadowing false
skinparam RoundCorner 7
skinparam ArrowColor 454645
skinparam FontColor 454645
skinparam SequenceLifeLineBorderColor 696969
skinparam SequenceGroupHeaderFontColor 454645
skinparam SequenceGroupFontColor 696969
skinparam SequenceGroupBorderColor 696969
skinparam SequenceGroupBorderThickness 1

skinparam sequenceDivider {
    BorderColor 454645
    BorderThickness 1
    FontColor 454645
}

skinparam participant {
    BackgroundColor FF6347
    BorderColor FF6F61
    FontColor FFFFFF
}

skinparam database {
    BackgroundColor 00FFFF
    BorderColor 454645
    FontColor FFFFFF
}

skinparam entity {
    BackgroundColor FFE552
    BorderColor 454645
    FontColor 454645
}

skinparam note {
    BackgroundColor 7FFFD4
    BorderColor 7FFFD4
    FontColor 454645
}

skinparam actor {
    BackgroundColor 454645
    BorderColor 454645
    FontColor 454645
}

skinparam boundary {
    BackgroundColor FFE552
    BorderColor 454645
    FontColor 454645
}

skinparam control {
    BackgroundColor FFE552
    BorderColor 454645
    FontColor 454645
}

skinparam collections {
    BackgroundColor FF6347
    BorderColor FFFFFF
    FontColor 454645
}

skinparam classAttributeIconSize 0

class MediaManager #LightGreen
abstract class Media #LightGreen
class Book #LightGreen
class Vinyl #LightGreen
class Ps2Game #LightGreen
class Track #LightGreen
enum VinylTypes #LightGreen

class Time

Media <|- - Book
Media <|- - Ps2Game
Media <|- - Vinyl
Vinyl *- - VinylTypes
Vinyl *- - Track
Track *- - Time

MediaManager *- - Media

package "Ditt användargränssnitt" <<Cloud>> #LightGreen {
note "main.cpp" as N1
}

"Ditt användargränssnitt" *- - MediaManager

package "Test suite" <<Cloud>> #DDDDDD {
    note "tests-main.cpp" as N2
}
    "Test suite" <.. MediaManager
    "Test suite" <.. Book
    "Test suite" <.. Vinyl
    "Test suite" <.. Track
    "Test suite" <.. Ps2Game

note left of VinylTypes #LightGreen
    De ljusgröna klasserna
    i diagrammet ska du
    implementera själv
end note

note left of Time #LightYellow
    De ljusgula klasserna i
    diagrammet följer med
end note

@enduml

PlantUML version 1.2021.00(Sun Jan 10 11:25:05 CET 2021)
(GPL source distribution)
Java Runtime: OpenJDK Runtime Environment
JVM: OpenJDK 64-Bit Server VM
Default Encoding: UTF-8
Language: en
Country: null
--></g></svg>