<?xml version="1.0" encoding="UTF-8" standalone="no"?><svg xmlns="http://www.w3.org/2000/svg" xmlns:xlink="http://www.w3.org/1999/xlink" contentScriptType="application/ecmascript" contentStyleType="text/css" height="231px" preserveAspectRatio="none" style="width:1188px;height:231px;" version="1.1" viewBox="0 0 1188 231" width="1188px" zoomAndPan="magnify"><defs/><g><!--MD5=[f04f5f52127f44ace2d3dae43d1d7ebf]
cluster Your app--><path d="M404.5,6 L474.5,6 A5.25,5.25 0 0 1 478,9.5 L485,28.2969 L495.5,28.2969 A3.5,3.5 0 0 1 499,31.7969 L499,99.5 A3.5,3.5 0 0 1 495.5,103 L404.5,103 A3.5,3.5 0 0 1 401,99.5 L401,9.5 A3.5,3.5 0 0 1 404.5,6 " fill="#FFFFFF" style="stroke:#000000;stroke-width:1.5;"/><line style="stroke:#000000;stroke-width:1.5;" x1="401" x2="485" y1="28.2969" y2="28.2969"/><text fill="#000000" font-family="sans-serif" font-size="14" font-weight="bold" lengthAdjust="spacing" textLength="71" x="405" y="20.9951">Your app</text><!--MD5=[fce027022cd772ef14d7db54b17b7edf]
cluster The tests--><path d="M527.5,6 L601.5,6 A5.25,5.25 0 0 1 605,9.5 L612,28.2969 L650.5,28.2969 A3.5,3.5 0 0 1 654,31.7969 L654,99.5 A3.5,3.5 0 0 1 650.5,103 L527.5,103 A3.5,3.5 0 0 1 524,99.5 L524,9.5 A3.5,3.5 0 0 1 527.5,6 " fill="#FFFFFF" style="stroke:#000000;stroke-width:1.5;"/><line style="stroke:#000000;stroke-width:1.5;" x1="524" x2="612" y1="28.2969" y2="28.2969"/><text fill="#000000" font-family="sans-serif" font-size="14" font-weight="bold" lengthAdjust="spacing" textLength="75" x="528" y="20.9951">The tests</text><!--MD5=[c60679dfbe80eab0cae5e3add7b10464]
cluster src--><path d="M9.5,127 L230.5,127 A5.25,5.25 0 0 1 234,130.5 L241,149.2969 L1177.5,149.2969 A3.5,3.5 0 0 1 1181,152.7969 L1181,220.5 A3.5,3.5 0 0 1 1177.5,224 L9.5,224 A3.5,3.5 0 0 1 6,220.5 L6,130.5 A3.5,3.5 0 0 1 9.5,127 " fill="#FFFFFF" style="stroke:#000000;stroke-width:1.5;"/><line style="stroke:#000000;stroke-width:1.5;" x1="6" x2="241" y1="149.2969" y2="149.2969"/><text fill="#000000" font-family="sans-serif" font-size="14" font-weight="bold" lengthAdjust="spacing" textLength="222" x="10" y="141.9951">Object files in the src-folder</text><!--MD5=[4541fb81c80c07473fe4b07432ef0971]
entity app--><rect fill="#FEFECE" height="46.2969" rx="3.5" ry="3.5" style="stroke:#A80036;stroke-width:1.5;" width="66" x="417" y="41"/><rect fill="#FEFECE" height="10" style="stroke:#A80036;stroke-width:1.5;" width="15" x="463" y="46"/><rect fill="#FEFECE" height="2" style="stroke:#A80036;stroke-width:1.5;" width="4" x="461" y="48"/><rect fill="#FEFECE" height="2" style="stroke:#A80036;stroke-width:1.5;" width="4" x="461" y="52"/><text fill="#000000" font-family="sans-serif" font-size="14" lengthAdjust="spacing" textLength="26" x="432" y="73.9951">app</text><!--MD5=[69d3ab794f68bcd74cc9ed9bc517ba28]
entity runtests--><rect fill="#FEFECE" height="46.2969" rx="3.5" ry="3.5" style="stroke:#A80036;stroke-width:1.5;" width="98" x="540" y="41"/><rect fill="#FEFECE" height="10" style="stroke:#A80036;stroke-width:1.5;" width="15" x="618" y="46"/><rect fill="#FEFECE" height="2" style="stroke:#A80036;stroke-width:1.5;" width="4" x="616" y="48"/><rect fill="#FEFECE" height="2" style="stroke:#A80036;stroke-width:1.5;" width="4" x="616" y="52"/><text fill="#000000" font-family="sans-serif" font-size="14" lengthAdjust="spacing" textLength="58" x="555" y="73.9951">runtests</text><!--MD5=[f0d7ae9b23c24230031e5f3302e56f80]
entity YourUserInterface.o--><rect fill="#FEFECE" height="46.2969" rx="3.5" ry="3.5" style="stroke:#A80036;stroke-width:1.5;" width="177" x="988.5" y="162"/><rect fill="#FEFECE" height="10" style="stroke:#A80036;stroke-width:1.5;" width="15" x="1145.5" y="167"/><rect fill="#FEFECE" height="2" style="stroke:#A80036;stroke-width:1.5;" width="4" x="1143.5" y="169"/><rect fill="#FEFECE" height="2" style="stroke:#A80036;stroke-width:1.5;" width="4" x="1143.5" y="173"/><text fill="#000000" font-family="sans-serif" font-size="14" lengthAdjust="spacing" textLength="137" x="1003.5" y="194.9951">YourUserInterface.o</text><!--MD5=[1b4cc193c6c327da51de49644d361586]
entity MediaManager.o--><rect fill="#FEFECE" height="46.2969" rx="3.5" ry="3.5" style="stroke:#A80036;stroke-width:1.5;" width="154" x="799" y="162"/><rect fill="#FEFECE" height="10" style="stroke:#A80036;stroke-width:1.5;" width="15" x="933" y="167"/><rect fill="#FEFECE" height="2" style="stroke:#A80036;stroke-width:1.5;" width="4" x="931" y="169"/><rect fill="#FEFECE" height="2" style="stroke:#A80036;stroke-width:1.5;" width="4" x="931" y="173"/><text fill="#000000" font-family="sans-serif" font-size="14" lengthAdjust="spacing" textLength="114" x="814" y="194.9951">MediaManager.o</text><!--MD5=[8ddd76f2b62c12d91f3347d68960fde6]
entity Media.o--><rect fill="#FEFECE" height="46.2969" rx="3.5" ry="3.5" style="stroke:#A80036;stroke-width:1.5;" width="94" x="670" y="162"/><rect fill="#FEFECE" height="10" style="stroke:#A80036;stroke-width:1.5;" width="15" x="744" y="167"/><rect fill="#FEFECE" height="2" style="stroke:#A80036;stroke-width:1.5;" width="4" x="742" y="169"/><rect fill="#FEFECE" height="2" style="stroke:#A80036;stroke-width:1.5;" width="4" x="742" y="173"/><text fill="#000000" font-family="sans-serif" font-size="14" lengthAdjust="spacing" textLength="54" x="685" y="194.9951">Media.o</text><!--MD5=[64d21df0cf4a93f093a0cb623899047b]
entity Book.o--><rect fill="#FEFECE" height="46.2969" rx="3.5" ry="3.5" style="stroke:#A80036;stroke-width:1.5;" width="89" x="545.5" y="162"/><rect fill="#FEFECE" height="10" style="stroke:#A80036;stroke-width:1.5;" width="15" x="614.5" y="167"/><rect fill="#FEFECE" height="2" style="stroke:#A80036;stroke-width:1.5;" width="4" x="612.5" y="169"/><rect fill="#FEFECE" height="2" style="stroke:#A80036;stroke-width:1.5;" width="4" x="612.5" y="173"/><text fill="#000000" font-family="sans-serif" font-size="14" lengthAdjust="spacing" textLength="49" x="560.5" y="194.9951">Book.o</text><!--MD5=[23919142a1524c996bc9d0d9ebb749a6]
entity Ps2Game.o--><rect fill="#FEFECE" height="46.2969" rx="3.5" ry="3.5" style="stroke:#A80036;stroke-width:1.5;" width="120" x="390" y="162"/><rect fill="#FEFECE" height="10" style="stroke:#A80036;stroke-width:1.5;" width="15" x="490" y="167"/><rect fill="#FEFECE" height="2" style="stroke:#A80036;stroke-width:1.5;" width="4" x="488" y="169"/><rect fill="#FEFECE" height="2" style="stroke:#A80036;stroke-width:1.5;" width="4" x="488" y="173"/><text fill="#000000" font-family="sans-serif" font-size="14" lengthAdjust="spacing" textLength="80" x="405" y="194.9951">Ps2Game.o</text><!--MD5=[11a73baf6cf765812e58759b56f2952c]
entity Vinyl.o--><rect fill="#FEFECE" height="46.2969" rx="3.5" ry="3.5" style="stroke:#A80036;stroke-width:1.5;" width="84" x="271" y="162"/><rect fill="#FEFECE" height="10" style="stroke:#A80036;stroke-width:1.5;" width="15" x="335" y="167"/><rect fill="#FEFECE" height="2" style="stroke:#A80036;stroke-width:1.5;" width="4" x="333" y="169"/><rect fill="#FEFECE" height="2" style="stroke:#A80036;stroke-width:1.5;" width="4" x="333" y="173"/><text fill="#000000" font-family="sans-serif" font-size="14" lengthAdjust="spacing" textLength="44" x="286" y="194.9951">Vinyl.o</text><!--MD5=[5d974f2c75422af4617726a181227531]
entity Track.o--><rect fill="#FEFECE" height="46.2969" rx="3.5" ry="3.5" style="stroke:#A80036;stroke-width:1.5;" width="91" x="144.5" y="162"/><rect fill="#FEFECE" height="10" style="stroke:#A80036;stroke-width:1.5;" width="15" x="215.5" y="167"/><rect fill="#FEFECE" height="2" style="stroke:#A80036;stroke-width:1.5;" width="4" x="213.5" y="169"/><rect fill="#FEFECE" height="2" style="stroke:#A80036;stroke-width:1.5;" width="4" x="213.5" y="173"/><text fill="#000000" font-family="sans-serif" font-size="14" lengthAdjust="spacing" textLength="51" x="159.5" y="194.9951">Track.o</text><!--MD5=[8b70ee905d5a00ed1ad364c106bbd351]
entity Time.o--><rect fill="#FEFECE" height="46.2969" rx="3.5" ry="3.5" style="stroke:#A80036;stroke-width:1.5;" width="87" x="22.5" y="162"/><rect fill="#FEFECE" height="10" style="stroke:#A80036;stroke-width:1.5;" width="15" x="89.5" y="167"/><rect fill="#FEFECE" height="2" style="stroke:#A80036;stroke-width:1.5;" width="4" x="87.5" y="169"/><rect fill="#FEFECE" height="2" style="stroke:#A80036;stroke-width:1.5;" width="4" x="87.5" y="173"/><text fill="#000000" font-family="sans-serif" font-size="14" lengthAdjust="spacing" textLength="47" x="37.5" y="194.9951">Time.o</text><!--MD5=[1bc6fd14bca56d9cddd4224ab4d74acc]
reverse link app to YourUserInterface.o--><path d="M488.3,94.2 C499.27,101.01 511.62,107.34 524,111 C571.64,125.06 923.32,105.08 971,119 C1000.43,127.59 1029.82,146.65 1050.17,161.92 " fill="none" id="app-backto-YourUserInterface.o" style="stroke:#454645;stroke-width:1.0;"/><polygon fill="#454645" points="477.43,87.01,480.2278,93.6562,487.4389,93.6298,484.6411,86.9836,477.43,87.01" style="stroke:#454645;stroke-width:1.0;"/><!--MD5=[1576521b61526311d718b504964ca9ac]
reverse link app to MediaManager.o--><path d="M488.96,94.48 C499.77,101.15 511.88,107.34 524,111 C578.91,127.6 727.51,101.07 782,119 C808.57,127.75 834.39,146.58 852.22,161.73 " fill="none" id="app-backto-MediaManager.o" style="stroke:#454645;stroke-width:1.0;"/><polygon fill="#454645" points="477.81,87.15,480.6301,93.7868,487.8411,93.7362,485.0209,87.0994,477.81,87.15" style="stroke:#454645;stroke-width:1.0;"/><!--MD5=[e3268c5c84105a079b215373af694019]
reverse link app to Media.o--><path d="M489.33,94.4 C500.06,101 512.04,107.18 524,111 C551.15,119.67 626.02,107.28 652,119 C672.37,128.19 689.9,146.77 701.6,161.72 " fill="none" id="app-backto-Media.o" style="stroke:#454645;stroke-width:1.0;"/><polygon fill="#454645" points="478.23,87.15,481.0642,93.7808,488.275,93.7149,485.4408,87.0841,478.23,87.15" style="stroke:#454645;stroke-width:1.0;"/><!--MD5=[94903bded5a8180a0049fbaa2a4785ac]
reverse link app to Book.o--><path d="M494.38,93.41 C505.69,101.27 517.58,110.09 528,119 C543.41,132.17 559.16,148.73 570.93,161.84 " fill="none" id="app-backto-Book.o" style="stroke:#454645;stroke-width:1.0;"/><polygon fill="#454645" points="483.35,85.91,486.0584,92.5931,493.2692,92.6635,490.5608,85.9803,483.35,85.91" style="stroke:#454645;stroke-width:1.0;"/><!--MD5=[e5c7beaea4d5b795e6222bc0cd10208a]
reverse link app to Ps2Game.o--><path d="M450,100.33 C450,120.18 450,144.36 450,161.61 " fill="none" id="app-backto-Ps2Game.o" style="stroke:#454645;stroke-width:1.0;"/><polygon fill="#454645" points="450,87.1,446,93.1,450,99.1,454,93.1,450,87.1" style="stroke:#454645;stroke-width:1.0;"/><!--MD5=[52b09f2b5d531f2446a47ef4775ee277]
reverse link app to Vinyl.o--><path d="M405.81,93.57 C394.74,101.37 383.14,110.13 373,119 C357.97,132.14 342.73,148.7 331.37,161.81 " fill="none" id="app-backto-Vinyl.o" style="stroke:#454645;stroke-width:1.0;"/><polygon fill="#454645" points="416.63,86.12,409.4197,86.2299,406.748,92.9279,413.9583,92.8179,416.63,86.12" style="stroke:#454645;stroke-width:1.0;"/><!--MD5=[2abdc13f918ef552ad22f68867a47883]
reverse link app to Track.o--><path d="M403.74,70.78 C362.25,77.53 300.86,91.48 254,119 C235.43,129.91 218.53,147.57 206.76,161.73 " fill="none" id="app-backto-Track.o" style="stroke:#454645;stroke-width:1.0;"/><polygon fill="#454645" points="416.74,68.8,410.2064,65.7485,404.8767,70.6059,411.4103,73.6574,416.74,68.8" style="stroke:#454645;stroke-width:1.0;"/><!--MD5=[66a49c058fcceefed6df3ac129b57536]
reverse link app to Time.o--><path d="M403.67,69.07 C326.17,76.49 174.11,93.79 127,119 C108.17,129.08 91.92,147.18 80.93,161.72 " fill="none" id="app-backto-Time.o" style="stroke:#454645;stroke-width:1.0;"/><polygon fill="#454645" points="416.78,67.84,410.4326,64.4179,404.8325,68.9609,411.1799,72.383,416.78,67.84" style="stroke:#454645;stroke-width:1.0;"/><!--MD5=[124efc5bbdb420d8782cf8eb1131a7b1]
reverse link runtests to YourUserInterface.o--><path d="M643.5,65.78 C719.15,68.39 859.29,78.82 971,119 C999.03,129.08 1027.64,147.18 1048.07,161.73 " fill="none" id="runtests-backto-YourUserInterface.o" style="stroke:#454645;stroke-width:1.0;stroke-dasharray:7.0,7.0;"/><polygon fill="#454645" points="638.16,65.6,647.0177,69.906,643.1571,65.7713,647.2918,61.9107,638.16,65.6" style="stroke:#454645;stroke-width:1.0;"/><!--MD5=[8cb75eabd14d9208b38bc7ca39b908ae]
reverse link runtests to MediaManager.o--><path d="M643.43,75.16 C683.06,83.76 737.39,98.06 782,119 C806.25,130.38 831.06,147.84 849.1,161.79 " fill="none" id="runtests-backto-MediaManager.o" style="stroke:#454645;stroke-width:1.0;stroke-dasharray:7.0,7.0;"/><polygon fill="#454645" points="638.18,74.04,646.1467,79.8306,643.0698,75.0837,647.8167,72.0069,638.18,74.04" style="stroke:#454645;stroke-width:1.0;"/><!--MD5=[a412e5f2ad0348a15754f13d37baa708]
reverse link runtests to Media.o--><path d="M619.82,90.6 C630.19,99.43 641.74,109.5 652,119 C666.99,132.88 683.24,149.13 695.74,161.91 " fill="none" id="runtests-backto-Media.o" style="stroke:#454645;stroke-width:1.0;stroke-dasharray:7.0,7.0;"/><polygon fill="#454645" points="615.76,87.15,620.0452,96.0177,619.5764,90.3804,625.2138,89.9115,615.76,87.15" style="stroke:#454645;stroke-width:1.0;"/><!--MD5=[b4cf76c9cc7b046d57ffdd7004e5c61c]
reverse link runtests to Book.o--><path d="M589.23,92.27 C589.41,113.27 589.65,141.94 589.81,161.61 " fill="none" id="runtests-backto-Book.o" style="stroke:#454645;stroke-width:1.0;stroke-dasharray:7.0,7.0;"/><polygon fill="#454645" points="589.19,87.1,585.2673,96.134,589.2329,92.0998,593.267,96.0654,589.19,87.1" style="stroke:#454645;stroke-width:1.0;"/><!--MD5=[e7ec44adc134fcb25debf4a249d72a1f]
reverse link runtests to Ps2Game.o--><path d="M559.31,90.42 C534.62,111.56 499.81,141.36 476.15,161.61 " fill="none" id="runtests-backto-Ps2Game.o" style="stroke:#454645;stroke-width:1.0;stroke-dasharray:7.0,7.0;"/><polygon fill="#454645" points="563.18,87.1,553.7435,89.9201,559.3837,90.354,558.9499,95.9941,563.18,87.1" style="stroke:#454645;stroke-width:1.0;"/><!--MD5=[62da06ec2763eaafd50fa949bc49eba6]
reverse link runtests to Vinyl.o--><path d="M549.4,89.67 C534.2,97.93 516.33,106.24 499,111 C471.94,118.43 398.33,106.94 373,119 C353.59,128.24 337.46,146.82 326.84,161.75 " fill="none" id="runtests-backto-Vinyl.o" style="stroke:#454645;stroke-width:1.0;stroke-dasharray:7.0,7.0;"/><polygon fill="#454645" points="554.03,87.11,544.22,87.9842,549.6592,89.5382,548.1052,94.9774,554.03,87.11" style="stroke:#454645;stroke-width:1.0;"/><!--MD5=[b75609308fab08f3d9724ca315a69d46]
reverse link runtests to Track.o--><path d="M549.88,89.74 C534.6,98.1 516.55,106.47 499,111 C472.63,117.81 278.95,108.07 254,119 C233.55,127.96 216.21,146.77 204.76,161.86 " fill="none" id="runtests-backto-Track.o" style="stroke:#454645;stroke-width:1.0;stroke-dasharray:7.0,7.0;"/><polygon fill="#454645" points="554.53,87.14,544.72,88.0142,550.1592,89.5682,548.6052,95.0074,554.53,87.14" style="stroke:#454645;stroke-width:1.0;"/><!--MD5=[d9b945b1f88459f5d01c0d0a8ad7d661]
reverse link runtests to Time.o--><path d="M550.3,89.62 C534.94,98.07 516.73,106.53 499,111 C458.91,121.11 164.76,102.17 127,119 C107.07,127.88 90.59,146.7 79.8,161.81 " fill="none" id="runtests-backto-Time.o" style="stroke:#454645;stroke-width:1.0;stroke-dasharray:7.0,7.0;"/><polygon fill="#454645" points="554.98,87,545.1735,87.9123,550.6187,89.4452,549.0858,94.8904,554.98,87" style="stroke:#454645;stroke-width:1.0;"/><!--MD5=[5ed0d04e416cedd898c79492c995f61f]
@startuml
!include https://raw.githubusercontent.com/future-architect/puml-themes/master/themes/puml-theme-vibrant.puml

skinparam classAttributeIconSize 0

package "Your app" {
[app]
}

package "The tests" {
[runtests]
}

package "Object files in the src-folder" as src {
[YourUserInterface.o]
[MediaManager.o]
[Media.o]
[Book.o]
[Ps2Game.o]
[Vinyl.o]
[Track.o]
[Time.o]
}

app *- - YourUserInterface.o
app *- - MediaManager.o
app *- - Media.o
app *- - Book.o
app *- - Ps2Game.o
app *- - Vinyl.o
app *- - Track.o
app *- - Time.o

runtests <.. YourUserInterface.o
runtests <.. MediaManager.o
runtests <.. Media.o
runtests <.. Book.o
runtests <.. Ps2Game.o
runtests <.. Vinyl.o
runtests <.. Track.o
runtests <.. Time.o


@enduml

@startuml
skinparam BackgroundColor FFFFFF
skinparam shadowing false
skinparam RoundCorner 7
skinparam ArrowColor 454645
skinparam FontColor 454645
skinparam SequenceLifeLineBorderColor 696969
skinparam SequenceGroupHeaderFontColor 454645
skinparam SequenceGroupFontColor 696969
skinparam SequenceGroupBorderColor 696969
skinparam SequenceGroupBorderThickness 1

skinparam sequenceDivider {
    BorderColor 454645
    BorderThickness 1
    FontColor 454645
}

skinparam participant {
    BackgroundColor FF6347
    BorderColor FF6F61
    FontColor FFFFFF
}

skinparam database {
    BackgroundColor 00FFFF
    BorderColor 454645
    FontColor FFFFFF
}

skinparam entity {
    BackgroundColor FFE552
    BorderColor 454645
    FontColor 454645
}

skinparam note {
    BackgroundColor 7FFFD4
    BorderColor 7FFFD4
    FontColor 454645
}

skinparam actor {
    BackgroundColor 454645
    BorderColor 454645
    FontColor 454645
}

skinparam boundary {
    BackgroundColor FFE552
    BorderColor 454645
    FontColor 454645
}

skinparam control {
    BackgroundColor FFE552
    BorderColor 454645
    FontColor 454645
}

skinparam collections {
    BackgroundColor FF6347
    BorderColor FFFFFF
    FontColor 454645
}

skinparam classAttributeIconSize 0

package "Your app" {
[app]
}

package "The tests" {
[runtests]
}

package "Object files in the src-folder" as src {
[YourUserInterface.o]
[MediaManager.o]
[Media.o]
[Book.o]
[Ps2Game.o]
[Vinyl.o]
[Track.o]
[Time.o]
}

app *- - YourUserInterface.o
app *- - MediaManager.o
app *- - Media.o
app *- - Book.o
app *- - Ps2Game.o
app *- - Vinyl.o
app *- - Track.o
app *- - Time.o

runtests <.. YourUserInterface.o
runtests <.. MediaManager.o
runtests <.. Media.o
runtests <.. Book.o
runtests <.. Ps2Game.o
runtests <.. Vinyl.o
runtests <.. Track.o
runtests <.. Time.o


@enduml

PlantUML version 1.2021.00(Sun Jan 10 11:25:05 CET 2021)
(GPL source distribution)
Java Runtime: OpenJDK Runtime Environment
JVM: OpenJDK 64-Bit Server VM
Default Encoding: UTF-8
Language: en
Country: null
--></g></svg>